<svg width="317" height="18" viewBox="0 0 317 18" fill="none" xmlns="http://www.w3.org/2000/svg">
<path d="M5.304 0.487999H5.712L7.608 7.064L4.848 17H0.048L5.304 0.487999ZM10.704 14.072H6.696L7.704 10.376H9.624L6.792 0.487999H11.184L16.44 17H11.544L10.704 14.072ZM18.0366 0.487999H22.8366V17H18.0366V0.487999ZM23.8446 13.328H24.0366C24.8206 13.328 25.3726 13.296 25.6926 13.232C26.0286 13.152 26.2766 12.976 26.4366 12.704C26.6126 12.416 26.7086 11.96 26.7246 11.336C26.7566 10.536 26.7726 9.672 26.7726 8.744C26.7726 7.832 26.7566 6.96 26.7246 6.128C26.6926 5.504 26.5886 5.048 26.4126 4.76C26.2526 4.472 25.9886 4.296 25.6206 4.232C25.2526 4.184 24.7246 4.16 24.0366 4.16H23.8446V0.487999H24.0366C25.3166 0.487999 26.3806 0.543999 27.2286 0.655999C28.0926 0.767999 28.8046 0.943999 29.3646 1.184C29.9086 1.424 30.3406 1.752 30.6606 2.168C30.9806 2.584 31.2126 3.104 31.3566 3.728C31.4846 4.288 31.5646 4.952 31.5966 5.72C31.6446 6.472 31.6686 7.48 31.6686 8.744C31.6686 10.024 31.6446 11.04 31.5966 11.792C31.5646 12.544 31.4846 13.2 31.3566 13.76C31.2126 14.384 30.9806 14.904 30.6606 15.32C30.3406 15.736 29.9086 16.064 29.3646 16.304C28.8046 16.544 28.0926 16.72 27.2286 16.832C26.3806 16.944 25.3166 17 24.0366 17H23.8446V13.328ZM34.3491 1.208V0.487999H38.7651L45.6771 15.176L44.8851 17H41.7651L34.3491 1.208ZM47.9091 10.064H47.8131L46.2051 13.952L44.1411 9.536L47.9091 0.487999H52.4691V17H47.9091V10.064ZM34.3491 3.584L38.7651 12.992V17H34.3491V3.584ZM55.5834 0.487999H60.3834V17H55.5834V0.487999ZM63.5053 1.16V0.487999H68.3053L77.5693 16.304V17H72.7933L63.5053 1.16ZM73.0093 6.512V0.487999H77.5693V14.312L73.0093 6.512ZM63.5053 3.152L68.0653 10.952V17H63.5053V3.152ZM80.661 13.088H85.509V17H80.661V13.088ZM88.6069 0.487999H93.4069V17H88.6069V0.487999ZM94.4149 13.328H95.3989C95.8469 13.328 96.1829 13.32 96.4069 13.304C96.6469 13.272 96.8229 13.208 96.9349 13.112C97.0469 13.016 97.1189 12.88 97.1509 12.704C97.1989 12.528 97.2229 12.272 97.2229 11.936C97.2229 11.584 97.1989 11.32 97.1509 11.144C97.1189 10.968 97.0469 10.832 96.9349 10.736C96.7429 10.576 96.2309 10.496 95.3989 10.496H94.4149V6.824H95.2549C95.7029 6.824 96.0389 6.816 96.2629 6.8C96.5029 6.768 96.6789 6.704 96.7909 6.608C96.9029 6.512 96.9749 6.384 97.0069 6.224C97.0549 6.048 97.0789 5.808 97.0789 5.504C97.0789 5.184 97.0549 4.944 97.0069 4.784C96.9749 4.608 96.9029 4.472 96.7909 4.376C96.6789 4.28 96.5029 4.224 96.2629 4.208C96.0389 4.176 95.7029 4.16 95.2549 4.16H94.4149V0.487999H97.1509C100.367 0.487999 101.975 1.872 101.975 4.64C101.975 5.808 101.743 6.688 101.279 7.28C100.831 7.872 100.111 8.288 99.1189 8.528V8.624C100.159 8.864 100.903 9.24 101.351 9.752C101.863 10.36 102.119 11.304 102.119 12.584C102.119 14.056 101.727 15.16 100.943 15.896C100.159 16.632 98.9029 17 97.1749 17H94.4149V13.328ZM104.685 0.487999H109.485V17H104.685V0.487999ZM112.607 0.487999H117.407V17H112.607V0.487999ZM118.415 11.216V6.056L122.207 0.487999H127.439L121.751 8.264L127.511 17H122.135L118.415 11.216ZM128.99 0.487999H133.79V17H128.99V0.487999ZM134.798 0.487999H140.894V4.16H134.798V0.487999ZM134.798 6.824H139.766V10.496H134.798V6.824ZM134.798 13.328H140.894V17H134.798V13.328ZM143.347 8.384H150.187V11.96H143.347V8.384ZM152.873 0.487999H157.673V17H152.873V0.487999ZM158.681 13.328H159.665C160.113 13.328 160.449 13.32 160.673 13.304C160.913 13.272 161.089 13.208 161.201 13.112C161.313 13.016 161.385 12.88 161.417 12.704C161.465 12.528 161.489 12.272 161.489 11.936C161.489 11.584 161.465 11.32 161.417 11.144C161.385 10.968 161.313 10.832 161.201 10.736C161.009 10.576 160.497 10.496 159.665 10.496H158.681V6.824H159.521C159.969 6.824 160.305 6.816 160.529 6.8C160.769 6.768 160.945 6.704 161.057 6.608C161.169 6.512 161.241 6.384 161.273 6.224C161.321 6.048 161.345 5.808 161.345 5.504C161.345 5.184 161.321 4.944 161.273 4.784C161.241 4.608 161.169 4.472 161.057 4.376C160.945 4.28 160.769 4.224 160.529 4.208C160.305 4.176 159.969 4.16 159.521 4.16H158.681V0.487999H161.417C164.633 0.487999 166.241 1.872 166.241 4.64C166.241 5.808 166.009 6.688 165.545 7.28C165.097 7.872 164.377 8.288 163.385 8.528V8.624C164.425 8.864 165.169 9.24 165.617 9.752C166.129 10.36 166.385 11.304 166.385 12.584C166.385 14.056 165.993 15.16 165.209 15.896C164.425 16.632 163.169 17 161.441 17H158.681V13.328ZM178.119 8.744C178.119 7.352 178.111 6.44 178.095 6.008C178.063 5.352 177.975 4.88 177.831 4.592C177.687 4.288 177.455 4.104 177.135 4.04C176.815 3.992 176.359 3.968 175.767 3.968C175.079 3.968 174.631 4 174.423 4.064V0.319999C174.567 0.303999 174.783 0.295999 175.071 0.295999H175.767C177.559 0.295999 178.943 0.439999 179.919 0.727999C180.911 1 181.631 1.456 182.079 2.096C182.495 2.688 182.751 3.464 182.847 4.424C182.959 5.384 183.015 6.824 183.015 8.744C183.015 10.424 182.975 11.72 182.895 12.632C182.831 13.528 182.655 14.272 182.367 14.864C182.047 15.536 181.551 16.048 180.879 16.4C180.223 16.752 179.303 16.984 178.119 17.096V8.744ZM175.767 17.192C173.431 17.192 171.751 16.936 170.727 16.424C170.199 16.168 169.783 15.824 169.479 15.392C169.175 14.96 168.951 14.424 168.807 13.784C168.679 13.224 168.599 12.584 168.567 11.864C168.535 11.128 168.519 10.088 168.519 8.744C168.519 7.064 168.551 5.776 168.615 4.88C168.695 3.984 168.879 3.232 169.167 2.624C169.487 1.968 169.975 1.464 170.631 1.112C171.287 0.759999 172.215 0.52 173.415 0.391999V8.744C173.415 9.688 173.431 10.592 173.463 11.456C173.495 12.112 173.575 12.592 173.703 12.896C173.847 13.2 174.079 13.376 174.399 13.424C174.671 13.488 175.127 13.52 175.767 13.52C176.423 13.52 176.871 13.496 177.111 13.448V17.168C176.967 17.184 176.751 17.192 176.463 17.192H175.767ZM194.876 8.744C194.876 7.352 194.868 6.44 194.852 6.008C194.82 5.352 194.732 4.88 194.588 4.592C194.444 4.288 194.212 4.104 193.892 4.04C193.572 3.992 193.116 3.968 192.524 3.968C191.836 3.968 191.388 4 191.18 4.064V0.319999C191.324 0.303999 191.54 0.295999 191.828 0.295999H192.524C194.316 0.295999 195.7 0.439999 196.676 0.727999C197.668 1 198.388 1.456 198.836 2.096C199.252 2.688 199.508 3.464 199.604 4.424C199.716 5.384 199.772 6.824 199.772 8.744C199.772 10.424 199.732 11.72 199.652 12.632C199.588 13.528 199.412 14.272 199.124 14.864C198.804 15.536 198.308 16.048 197.636 16.4C196.98 16.752 196.06 16.984 194.876 17.096V8.744ZM192.524 17.192C190.188 17.192 188.508 16.936 187.484 16.424C186.956 16.168 186.54 15.824 186.236 15.392C185.932 14.96 185.708 14.424 185.564 13.784C185.436 13.224 185.356 12.584 185.324 11.864C185.292 11.128 185.276 10.088 185.276 8.744C185.276 7.064 185.308 5.776 185.372 4.88C185.452 3.984 185.636 3.232 185.924 2.624C186.244 1.968 186.732 1.464 187.388 1.112C188.044 0.759999 188.972 0.52 190.172 0.391999V8.744C190.172 9.688 190.188 10.592 190.22 11.456C190.252 12.112 190.332 12.592 190.46 12.896C190.604 13.2 190.836 13.376 191.156 13.424C191.428 13.488 191.884 13.52 192.524 13.52C193.18 13.52 193.628 13.496 193.868 13.448V17.168C193.724 17.184 193.508 17.192 193.22 17.192H192.524ZM202.466 0.487999H207.266V17H202.466V0.487999ZM208.274 11.216V6.056L212.066 0.487999H217.298L211.61 8.264L217.37 17H211.994L208.274 11.216ZM218.849 0.487999H223.649V17H218.849V0.487999ZM226.771 1.16V0.487999H231.571L240.835 16.304V17H236.059L226.771 1.16ZM236.275 6.512V0.487999H240.835V14.312L236.275 6.512ZM226.771 3.152L231.331 10.952V17H226.771V3.152ZM249.423 0.344C250.063 0.311999 250.591 0.295999 251.007 0.295999C252.447 0.295999 253.767 0.391999 254.967 0.584C255.575 0.648 256.159 0.743999 256.719 0.871999V4.304C256.047 4.24 255.543 4.184 255.207 4.136C254.935 4.12 254.495 4.08 253.887 4.016C253.279 3.984 252.879 3.968 252.687 3.968C251.711 3.968 250.991 3.992 250.527 4.04C250.079 4.072 249.711 4.168 249.423 4.328V0.344ZM251.007 17.192C249.407 17.192 248.127 17.072 247.167 16.832C246.223 16.592 245.487 16.168 244.959 15.56C244.431 14.952 244.055 14.112 243.831 13.04C243.623 11.968 243.519 10.536 243.519 8.744C243.519 7.224 243.591 5.976 243.735 5C243.879 4.024 244.127 3.224 244.479 2.6C244.847 1.96 245.343 1.472 245.967 1.136C246.591 0.799999 247.407 0.567999 248.415 0.439999V8.744C248.415 9.88 248.447 10.752 248.511 11.36C248.575 11.952 248.695 12.408 248.871 12.728C249.063 13.064 249.335 13.296 249.687 13.424C250.055 13.552 250.575 13.616 251.247 13.616V17.192H251.007ZM252.255 10.664H250.551V7.184H256.791V16.592C256.039 16.768 255.103 16.904 253.983 17C253.439 17.08 252.863 17.128 252.255 17.144V10.664ZM259.77 13.088H264.618V17H259.77V13.088ZM273.188 0.319999C273.316 0.303999 273.516 0.295999 273.788 0.295999H274.412C275.484 0.295999 276.532 0.375999 277.556 0.535999C278.084 0.615999 278.492 0.695999 278.78 0.775999V4.208C278.54 4.192 278.14 4.152 277.58 4.088C276.828 4.008 276.172 3.968 275.612 3.968C274.988 3.968 274.484 3.992 274.1 4.04C273.732 4.072 273.428 4.136 273.188 4.232V0.319999ZM274.412 17.192C272.812 17.192 271.54 17.056 270.596 16.784C269.668 16.496 268.964 16.024 268.484 15.368C268.02 14.744 267.7 13.92 267.524 12.896C267.364 11.856 267.284 10.472 267.284 8.744C267.284 7.224 267.34 5.992 267.452 5.048C267.58 4.104 267.804 3.312 268.124 2.672C268.46 2.016 268.948 1.512 269.588 1.16C270.244 0.791999 271.108 0.543999 272.18 0.415999V8.744C272.18 9.64 272.196 10.504 272.228 11.336C272.26 11.976 272.38 12.456 272.588 12.776C272.812 13.096 273.156 13.296 273.62 13.376C274.068 13.472 274.732 13.52 275.612 13.52C276.524 13.52 277.3 13.48 277.94 13.4C278.196 13.384 278.508 13.344 278.876 13.28V16.76C278.092 16.936 277.204 17.056 276.212 17.12C275.668 17.168 275.068 17.192 274.412 17.192ZM290.525 8.744C290.525 7.352 290.517 6.44 290.501 6.008C290.469 5.352 290.381 4.88 290.237 4.592C290.093 4.288 289.861 4.104 289.541 4.04C289.221 3.992 288.765 3.968 288.173 3.968C287.485 3.968 287.037 4 286.829 4.064V0.319999C286.973 0.303999 287.189 0.295999 287.477 0.295999H288.173C289.965 0.295999 291.349 0.439999 292.325 0.727999C293.317 1 294.037 1.456 294.485 2.096C294.901 2.688 295.157 3.464 295.253 4.424C295.365 5.384 295.421 6.824 295.421 8.744C295.421 10.424 295.381 11.72 295.301 12.632C295.237 13.528 295.061 14.272 294.773 14.864C294.453 15.536 293.957 16.048 293.285 16.4C292.629 16.752 291.709 16.984 290.525 17.096V8.744ZM288.173 17.192C285.837 17.192 284.157 16.936 283.133 16.424C282.605 16.168 282.189 15.824 281.885 15.392C281.581 14.96 281.357 14.424 281.213 13.784C281.085 13.224 281.005 12.584 280.973 11.864C280.941 11.128 280.925 10.088 280.925 8.744C280.925 7.064 280.957 5.776 281.021 4.88C281.101 3.984 281.285 3.232 281.573 2.624C281.893 1.968 282.381 1.464 283.037 1.112C283.693 0.759999 284.621 0.52 285.821 0.391999V8.744C285.821 9.688 285.837 10.592 285.869 11.456C285.901 12.112 285.981 12.592 286.109 12.896C286.253 13.2 286.485 13.376 286.805 13.424C287.077 13.488 287.533 13.52 288.173 13.52C288.829 13.52 289.277 13.496 289.517 13.448V17.168C289.373 17.184 289.157 17.192 288.869 17.192H288.173ZM298.115 1.208V0.487999H302.531L309.443 15.176L308.651 17H305.531L298.115 1.208ZM311.675 10.064H311.579L309.971 13.952L307.907 9.536L311.675 0.487999H316.235V17H311.675V10.064ZM298.115 3.584L302.531 12.992V17H298.115V3.584Z" fill="#E8E8E8"/>
</svg>
