<svg width="192" height="16" viewBox="0 0 192 16" fill="none" xmlns="http://www.w3.org/2000/svg">
<path d="M0.214844 15.5V1.74H8.77484V3.34H1.93484V8.06H8.01484V9.68H1.93484V15.5H0.214844ZM11.223 2.5V0.639999H12.943V2.5H11.223ZM11.283 15.5V5.3H12.903V15.5H11.283ZM16.3611 5.3H17.8011L17.8811 7.24H18.0011C18.2411 6.44 18.6411 5.89333 19.2011 5.6C19.7611 5.29333 20.4944 5.14 21.4011 5.14V6.88C20.4811 6.88 19.7744 7.02 19.2811 7.3C18.7878 7.58 18.4478 8.01333 18.2611 8.6C18.0744 9.17333 17.9811 9.95333 17.9811 10.94V15.5H16.3611V5.3ZM27.0848 15.66C26.5382 15.66 25.9182 15.6333 25.2248 15.58C24.5315 15.5267 23.9182 15.4667 23.3848 15.4V13.96C24.7048 14.1067 25.9115 14.18 27.0048 14.18C27.6848 14.18 28.1848 14.1333 28.5048 14.04C28.8248 13.9467 29.0315 13.8 29.1248 13.6C29.2315 13.3867 29.2848 13.0733 29.2848 12.66C29.2848 12.2467 29.2448 11.9533 29.1648 11.78C29.0982 11.5933 28.9848 11.4667 28.8248 11.4C28.6648 11.3333 28.3848 11.28 27.9848 11.24L25.3248 10.94C24.7115 10.8733 24.2382 10.7333 23.9048 10.52C23.5848 10.3067 23.3648 10.0133 23.2448 9.64C23.1248 9.26667 23.0648 8.76667 23.0648 8.14C23.0648 7.27333 23.2182 6.62667 23.5248 6.2C23.8448 5.76 24.2782 5.47333 24.8248 5.34C25.3848 5.20667 26.1315 5.14 27.0648 5.14C27.5848 5.14 28.1448 5.16667 28.7448 5.22C29.3448 5.27333 29.8515 5.34 30.2648 5.42V6.86C29.2248 6.7 28.1515 6.62 27.0448 6.62C26.4315 6.62 25.9648 6.65333 25.6448 6.72C25.3248 6.77333 25.0782 6.90667 24.9048 7.12C24.7315 7.32 24.6448 7.64 24.6448 8.08C24.6448 8.46667 24.6782 8.74667 24.7448 8.92C24.8115 9.09333 24.9248 9.21333 25.0848 9.28C25.2448 9.34667 25.5115 9.4 25.8848 9.44L28.6448 9.76C29.2315 9.82667 29.6715 9.94 29.9648 10.1C30.2715 10.2467 30.4915 10.5133 30.6248 10.9C30.7715 11.2867 30.8448 11.86 30.8448 12.62C30.8448 13.46 30.7048 14.1 30.4248 14.54C30.1582 14.98 29.7582 15.28 29.2248 15.44C28.7048 15.5867 27.9915 15.66 27.0848 15.66ZM34.4277 15.5V6.78H32.3677V5.3H34.4277V2.34H36.0477V5.3H38.4877V6.78H36.0477V15.5H34.4277ZM50.0352 15.5L42.7752 4.98H42.6952V15.5H41.0352V1.74H42.7952L49.9552 12.02H50.0352V1.74H51.6752V15.5H50.0352ZM58.1436 15.66C56.9703 15.66 56.1169 15.4467 55.5836 15.02C55.0503 14.58 54.7836 13.8067 54.7836 12.7C54.7836 11.9133 54.8769 11.3 55.0636 10.86C55.2503 10.42 55.5636 10.1 56.0036 9.9C56.4569 9.7 57.0903 9.6 57.9036 9.6C58.2903 9.6 59.5636 9.63333 61.7236 9.7V9.1C61.7236 8.3 61.6436 7.73333 61.4836 7.4C61.3369 7.06667 61.0569 6.85333 60.6436 6.76C60.2436 6.66667 59.5569 6.62 58.5836 6.62C58.1569 6.62 57.6169 6.64667 56.9636 6.7C56.3236 6.74 55.8236 6.78667 55.4636 6.84V5.42C56.5169 5.23333 57.7503 5.14 59.1636 5.14C60.3636 5.14 61.2569 5.26667 61.8436 5.52C62.4436 5.76 62.8436 6.16 63.0436 6.72C63.2436 7.26667 63.3436 8.06667 63.3436 9.12V15.5H61.8836L61.8036 14.08H61.6836C61.4036 14.72 60.9503 15.1467 60.3236 15.36C59.7103 15.56 58.9836 15.66 58.1436 15.66ZM58.7636 14.2C59.4303 14.2 59.9703 14.14 60.3836 14.02C60.8103 13.9 61.1169 13.6667 61.3036 13.32C61.5836 12.84 61.7236 12.1733 61.7236 11.32V10.86H58.3236C57.7636 10.86 57.3503 10.9 57.0836 10.98C56.8303 11.06 56.6503 11.22 56.5436 11.46C56.4369 11.6867 56.3836 12.0467 56.3836 12.54C56.3836 13.02 56.4436 13.3733 56.5636 13.6C56.6836 13.8267 56.9036 13.9867 57.2236 14.08C57.5569 14.16 58.0703 14.2 58.7636 14.2ZM79.3898 9.76C79.3898 8.8 79.3365 8.12 79.2298 7.72C79.1365 7.32 78.9432 7.05333 78.6498 6.92C78.3565 6.78667 77.8632 6.72 77.1698 6.72C76.4232 6.72 75.8765 6.84667 75.5298 7.1C75.1832 7.35333 74.9632 7.71333 74.8698 8.18C74.7765 8.64667 74.7298 9.33333 74.7298 10.24V15.5H73.1098V9.76C73.1098 8.8 73.0565 8.12 72.9498 7.72C72.8565 7.32 72.6632 7.05333 72.3698 6.92C72.0765 6.78667 71.5832 6.72 70.8898 6.72C70.1432 6.72 69.5965 6.85333 69.2498 7.12C68.9032 7.37333 68.6832 7.74 68.5898 8.22C68.4965 8.68667 68.4498 9.36 68.4498 10.24V15.5H66.8298V5.3H68.2698L68.3498 6.74H68.4698C68.6698 6.22 69.0098 5.82667 69.4898 5.56C69.9832 5.28 70.6765 5.14 71.5698 5.14C72.4498 5.14 73.1165 5.26667 73.5698 5.52C74.0232 5.77333 74.3365 6.18 74.5098 6.74H74.6498C75.0765 5.67333 76.1365 5.14 77.8298 5.14C78.7232 5.14 79.3965 5.28 79.8498 5.56C80.3032 5.84 80.6098 6.26 80.7698 6.82C80.9298 7.36667 81.0098 8.13333 81.0098 9.12V15.5H79.3898V9.76ZM92.6461 10.98H85.6661C85.6661 11.9533 85.7328 12.6467 85.8661 13.06C85.9994 13.4733 86.2861 13.7667 86.7261 13.94C87.1794 14.1 87.9328 14.18 88.9861 14.18C90.0128 14.18 91.0994 14.1067 92.2461 13.96V15.38C91.8194 15.46 91.2661 15.5267 90.5861 15.58C89.9061 15.6333 89.2594 15.66 88.6461 15.66C87.2728 15.66 86.2594 15.5 85.6061 15.18C84.9661 14.86 84.5461 14.3467 84.3461 13.64C84.1461 12.9333 84.0461 11.86 84.0461 10.42C84.0461 9.00667 84.1328 7.94667 84.3061 7.24C84.4928 6.53333 84.8994 6.00667 85.5261 5.66C86.1661 5.31333 87.1728 5.14 88.5461 5.14C89.8261 5.14 90.7528 5.31333 91.3261 5.66C91.8994 5.99333 92.2594 6.50667 92.4061 7.2C92.5661 7.88 92.6461 8.94667 92.6461 10.4V10.98ZM88.5061 6.62C87.6394 6.62 87.0128 6.7 86.6261 6.86C86.2528 7.00667 85.9994 7.29333 85.8661 7.72C85.7461 8.13333 85.6794 8.80667 85.6661 9.74H91.0861V9.58C91.0861 8.7 91.0061 8.05333 90.8461 7.64C90.6994 7.22667 90.4528 6.95333 90.1061 6.82C89.7594 6.68667 89.2261 6.62 88.5061 6.62ZM100.645 15.5V1.74H102.365V13.84H108.785V15.5H100.645ZM113.866 15.66C112.693 15.66 111.84 15.4467 111.306 15.02C110.773 14.58 110.506 13.8067 110.506 12.7C110.506 11.9133 110.6 11.3 110.786 10.86C110.973 10.42 111.286 10.1 111.726 9.9C112.18 9.7 112.813 9.6 113.626 9.6C114.013 9.6 115.286 9.63333 117.446 9.7V9.1C117.446 8.3 117.366 7.73333 117.206 7.4C117.06 7.06667 116.78 6.85333 116.366 6.76C115.966 6.66667 115.28 6.62 114.306 6.62C113.88 6.62 113.34 6.64667 112.686 6.7C112.046 6.74 111.546 6.78667 111.186 6.84V5.42C112.24 5.23333 113.473 5.14 114.886 5.14C116.086 5.14 116.98 5.26667 117.566 5.52C118.166 5.76 118.566 6.16 118.766 6.72C118.966 7.26667 119.066 8.06667 119.066 9.12V15.5H117.606L117.526 14.08H117.406C117.126 14.72 116.673 15.1467 116.046 15.36C115.433 15.56 114.706 15.66 113.866 15.66ZM114.486 14.2C115.153 14.2 115.693 14.14 116.106 14.02C116.533 13.9 116.84 13.6667 117.026 13.32C117.306 12.84 117.446 12.1733 117.446 11.32V10.86H114.046C113.486 10.86 113.073 10.9 112.806 10.98C112.553 11.06 112.373 11.22 112.266 11.46C112.16 11.6867 112.106 12.0467 112.106 12.54C112.106 13.02 112.166 13.3733 112.286 13.6C112.406 13.8267 112.626 13.9867 112.946 14.08C113.28 14.16 113.793 14.2 114.486 14.2ZM125.933 15.66C125.386 15.66 124.766 15.6333 124.073 15.58C123.379 15.5267 122.766 15.4667 122.233 15.4V13.96C123.553 14.1067 124.759 14.18 125.853 14.18C126.533 14.18 127.033 14.1333 127.353 14.04C127.673 13.9467 127.879 13.8 127.973 13.6C128.079 13.3867 128.133 13.0733 128.133 12.66C128.133 12.2467 128.093 11.9533 128.013 11.78C127.946 11.5933 127.833 11.4667 127.673 11.4C127.513 11.3333 127.233 11.28 126.833 11.24L124.173 10.94C123.559 10.8733 123.086 10.7333 122.753 10.52C122.433 10.3067 122.213 10.0133 122.093 9.64C121.973 9.26667 121.913 8.76667 121.913 8.14C121.913 7.27333 122.066 6.62667 122.373 6.2C122.693 5.76 123.126 5.47333 123.673 5.34C124.233 5.20667 124.979 5.14 125.913 5.14C126.433 5.14 126.993 5.16667 127.593 5.22C128.193 5.27333 128.699 5.34 129.113 5.42V6.86C128.073 6.7 126.999 6.62 125.893 6.62C125.279 6.62 124.813 6.65333 124.493 6.72C124.173 6.77333 123.926 6.90667 123.752 7.12C123.579 7.32 123.493 7.64 123.493 8.08C123.493 8.46667 123.526 8.74667 123.593 8.92C123.659 9.09333 123.773 9.21333 123.933 9.28C124.093 9.34667 124.359 9.4 124.733 9.44L127.493 9.76C128.079 9.82667 128.519 9.94 128.813 10.1C129.119 10.2467 129.339 10.5133 129.473 10.9C129.619 11.2867 129.693 11.86 129.693 12.62C129.693 13.46 129.553 14.1 129.273 14.54C129.006 14.98 128.606 15.28 128.073 15.44C127.553 15.5867 126.839 15.66 125.933 15.66ZM133.275 15.5V6.78H131.215V5.3H133.275V2.34H134.895V5.3H137.335V6.78H134.895V15.5H133.275ZM148.883 15.5L141.623 4.98H141.543V15.5H139.883V1.74H141.643L148.803 12.02H148.883V1.74H150.523V15.5H148.883ZM156.991 15.66C155.818 15.66 154.965 15.4467 154.431 15.02C153.898 14.58 153.631 13.8067 153.631 12.7C153.631 11.9133 153.725 11.3 153.911 10.86C154.098 10.42 154.411 10.1 154.851 9.9C155.305 9.7 155.938 9.6 156.751 9.6C157.138 9.6 158.411 9.63333 160.571 9.7V9.1C160.571 8.3 160.491 7.73333 160.331 7.4C160.185 7.06667 159.905 6.85333 159.491 6.76C159.091 6.66667 158.405 6.62 157.431 6.62C157.005 6.62 156.465 6.64667 155.811 6.7C155.171 6.74 154.671 6.78667 154.311 6.84V5.42C155.365 5.23333 156.598 5.14 158.011 5.14C159.211 5.14 160.105 5.26667 160.691 5.52C161.291 5.76 161.691 6.16 161.891 6.72C162.091 7.26667 162.191 8.06667 162.191 9.12V15.5H160.731L160.651 14.08H160.531C160.251 14.72 159.798 15.1467 159.171 15.36C158.558 15.56 157.831 15.66 156.991 15.66ZM157.611 14.2C158.278 14.2 158.818 14.14 159.231 14.02C159.658 13.9 159.965 13.6667 160.151 13.32C160.431 12.84 160.571 12.1733 160.571 11.32V10.86H157.171C156.611 10.86 156.198 10.9 155.931 10.98C155.678 11.06 155.498 11.22 155.391 11.46C155.285 11.6867 155.231 12.0467 155.231 12.54C155.231 13.02 155.291 13.3733 155.411 13.6C155.531 13.8267 155.751 13.9867 156.071 14.08C156.405 14.16 156.918 14.2 157.611 14.2ZM178.238 9.76C178.238 8.8 178.184 8.12 178.078 7.72C177.984 7.32 177.791 7.05333 177.498 6.92C177.204 6.78667 176.711 6.72 176.018 6.72C175.271 6.72 174.724 6.84667 174.378 7.1C174.031 7.35333 173.811 7.71333 173.718 8.18C173.624 8.64667 173.578 9.33333 173.578 10.24V15.5H171.958V9.76C171.958 8.8 171.904 8.12 171.798 7.72C171.704 7.32 171.511 7.05333 171.218 6.92C170.924 6.78667 170.431 6.72 169.738 6.72C168.991 6.72 168.444 6.85333 168.098 7.12C167.751 7.37333 167.531 7.74 167.438 8.22C167.344 8.68667 167.298 9.36 167.298 10.24V15.5H165.678V5.3H167.118L167.198 6.74H167.318C167.518 6.22 167.858 5.82667 168.338 5.56C168.831 5.28 169.524 5.14 170.418 5.14C171.298 5.14 171.964 5.26667 172.418 5.52C172.871 5.77333 173.184 6.18 173.358 6.74H173.498C173.924 5.67333 174.984 5.14 176.678 5.14C177.571 5.14 178.244 5.28 178.698 5.56C179.151 5.84 179.458 6.26 179.618 6.82C179.778 7.36667 179.858 8.13333 179.858 9.12V15.5H178.238V9.76ZM191.494 10.98H184.514C184.514 11.9533 184.58 12.6467 184.714 13.06C184.847 13.4733 185.134 13.7667 185.574 13.94C186.027 14.1 186.78 14.18 187.834 14.18C188.86 14.18 189.947 14.1067 191.094 13.96V15.38C190.667 15.46 190.114 15.5267 189.434 15.58C188.754 15.6333 188.107 15.66 187.494 15.66C186.12 15.66 185.107 15.5 184.454 15.18C183.814 14.86 183.394 14.3467 183.194 13.64C182.994 12.9333 182.894 11.86 182.894 10.42C182.894 9.00667 182.98 7.94667 183.154 7.24C183.34 6.53333 183.747 6.00667 184.374 5.66C185.014 5.31333 186.02 5.14 187.394 5.14C188.674 5.14 189.6 5.31333 190.174 5.66C190.747 5.99333 191.107 6.50667 191.254 7.2C191.414 7.88 191.494 8.94667 191.494 10.4V10.98ZM187.354 6.62C186.487 6.62 185.86 6.7 185.474 6.86C185.1 7.00667 184.847 7.29333 184.714 7.72C184.594 8.13333 184.527 8.80667 184.514 9.74H189.934V9.58C189.934 8.7 189.854 8.05333 189.694 7.64C189.547 7.22667 189.3 6.95333 188.954 6.82C188.607 6.68667 188.074 6.62 187.354 6.62Z" fill="white"/>
</svg>
